MutatorSansInstance_600-200.ufo
<glyph name="comma" format="2">
  <advance width="235"/>
  <unicode hex="002C"/>
  <outline>
    <contour>
      <point x="185" y="0" type="line"/>
      <point x="185" y="236" type="line"/>
      <point x="51" y="236" type="line"/>
      <point x="51" y="0" type="line"/>
      <point x="111" y="-13" type="line"/>
      <point x="102" y="12" type="line"/>
      <point x="80" y="-123" type="line"/>
      <point x="128" y="-125" type="line"/>
    </contour>
  </outline>
</glyph>
<glyph name="period" format="2">
  <advance width="235"/>
  <unicode hex="002E"/>
  <outline>
    <contour>
      <point x="50" y="0" type="line"/>
      <point x="184" y="0" type="line"/>
      <point x="184" y="236" type="line"/>
      <point x="50" y="236" type="line"/>
    </contour>
  </outline>
</glyph>
<glyph name="A" format="2">
  <advance width="734"/>
  <unicode hex="0041"/>
  <outline>
    <contour>
      <point x="18" y="0" type="line"/>
      <point x="190" y="0" type="line"/>
      <point x="348" y="760" type="line"/>
      <point x="199" y="760" type="line"/>
    </contour>
    <contour>
      <point x="122" y="142" type="line"/>
      <point x="572" y="142" type="line"/>
      <point x="572" y="284" type="line"/>
      <point x="122" y="284" type="line"/>
    </contour>
    <contour>
      <point x="477" y="0" type="line"/>
      <point x="715" y="0" type="line"/>
      <point x="534" y="760" type="line"/>
      <point x="310" y="760" type="line"/>
    </contour>
    <contour>
      <point x="246" y="589" type="line"/>
      <point x="453" y="589" type="line"/>
      <point x="453" y="760" type="line"/>
      <point x="246" y="760" type="line"/>
    </contour>
  </outline>
</glyph>
<glyph name="B" format="2">
  <advance width="732"/>
  <unicode hex="0042"/>
  <outline>
    <contour>
      <point x="50" y="0" type="line"/>
      <point x="266" y="0" type="line"/>
      <point x="266" y="760" type="line"/>
      <point x="50" y="760" type="line"/>
    </contour>
    <contour>
      <point x="225" y="340" type="line"/>
      <point x="397" y="340" type="line" smooth="yes"/>
      <point x="459" y="340"/>
      <point x="494" y="310"/>
      <point x="494" y="248" type="curve" smooth="yes"/>
      <point x="494" y="187"/>
      <point x="458" y="157"/>
      <point x="394" y="157" type="curve" smooth="yes"/>
      <point x="225" y="157" type="line"/>
      <point x="225" y="0" type="line"/>
      <point x="435" y="0" type="line" smooth="yes"/>
      <point x="650" y="0"/>
      <point x="706" y="88"/>
      <point x="706" y="211" type="curve" smooth="yes"/>
      <point x="706" y="323"/>
      <point x="651" y="390"/>
      <point x="546" y="405" type="curve"/>
      <point x="542" y="366" type="line"/>
      <point x="625" y="382"/>
      <point x="686" y="442"/>
      <point x="686" y="545" type="curve" smooth="yes"/>
      <point x="686" y="674"/>
      <point x="624" y="760"/>
      <point x="415" y="760" type="curve" smooth="yes"/>
      <point x="225" y="760" type="line"/>
      <point x="225" y="610" type="line"/>
      <point x="381" y="610" type="line" smooth="yes"/>
      <point x="449" y="610"/>
      <point x="479" y="580"/>
      <point x="479" y="521" type="curve" smooth="yes"/>
      <point x="479" y="458"/>
      <point x="444" y="430"/>
      <point x="381" y="430" type="curve" smooth="yes"/>
      <point x="225" y="430" type="line"/>
    </contour>
  </outline>
</glyph>
<glyph name="C" format="2">
  <advance width="823"/>
  <unicode hex="0043"/>
  <outline>
    <contour>
      <point x="580" y="332" type="line"/>
      <point x="570" y="206"/>
      <point x="518" y="163"/>
      <point x="430" y="163" type="curve" smooth="yes"/>
      <point x="407" y="163" type="line" smooth="yes"/>
      <point x="312" y="163"/>
      <point x="259" y="222"/>
      <point x="259" y="383" type="curve" smooth="yes"/>
      <point x="259" y="540"/>
      <point x="312" y="597"/>
      <point x="407" y="597" type="curve" smooth="yes"/>
      <point x="430" y="597" type="line" smooth="yes"/>
      <point x="517" y="597"/>
      <point x="569" y="556"/>
      <point x="580" y="435" type="curve"/>
      <point x="786" y="456" type="line"/>
      <point x="763" y="673"/>
      <point x="634" y="770"/>
      <point x="440" y="770" type="curve" smooth="yes"/>
      <point x="396" y="770" type="line" smooth="yes"/>
      <point x="175" y="770"/>
      <point x="37" y="652"/>
      <point x="37" y="383" type="curve" smooth="yes"/>
      <point x="37" y="111"/>
      <point x="175" y="-10"/>
      <point x="396" y="-10" type="curve" smooth="yes"/>
      <point x="440" y="-10" type="line" smooth="yes"/>
      <point x="635" y="-10"/>
      <point x="765" y="90"/>
      <point x="787" y="311" type="curve"/>
    </contour>
  </outline>
</glyph>
<glyph name="D" format="2">
  <advance width="754"/>
  <unicode hex="0044"/>
  <outline>
    <contour>
      <point x="50" y="0" type="line"/>
      <point x="256" y="0" type="line"/>
      <point x="256" y="760" type="line"/>
      <point x="50" y="760" type="line"/>
    </contour>
    <contour>
      <point x="217" y="593" type="line"/>
      <point x="334" y="593" type="line" smooth="yes"/>
      <point x="435" y="593"/>
      <point x="495" y="540"/>
      <point x="495" y="383" type="curve" smooth="yes"/>
      <point x="495" y="222"/>
      <point x="435" y="167"/>
      <point x="334" y="167" type="curve" smooth="yes"/>
      <point x="213" y="167" type="line"/>
      <point x="213" y="0" type="line"/>
      <point x="344" y="0" type="line" smooth="yes"/>
      <point x="571" y="0"/>
      <point x="717" y="115"/>
      <point x="717" y="383" type="curve" smooth="yes"/>
      <point x="717" y="648"/>
      <point x="571" y="760"/>
      <point x="344" y="760" type="curve" smooth="yes"/>
      <point x="217" y="760" type="line"/>
    </contour>
  </outline>
</glyph>
<glyph name="E" format="2">
  <advance width="643"/>
  <unicode hex="0045"/>
  <anchor x="328" y="803" name="top"/>
  <outline>
    <contour>
      <point x="55" y="0" type="line"/>
      <point x="261" y="0" type="line"/>
      <point x="261" y="760" type="line"/>
      <point x="55" y="760" type="line"/>
    </contour>
    <contour>
      <point x="117" y="584" type="line"/>
      <point x="599" y="584" type="line"/>
      <point x="599" y="760" type="line"/>
      <point x="117" y="760" type="line"/>
    </contour>
    <contour>
      <point x="117" y="0" type="line"/>
      <point x="599" y="0" type="line"/>
      <point x="599" y="176" type="line"/>
      <point x="117" y="176" type="line"/>
    </contour>
    <contour>
      <point x="117" y="323" type="line"/>
      <point x="541" y="323" type="line"/>
      <point x="541" y="439" type="line"/>
      <point x="117" y="439" type="line"/>
    </contour>
  </outline>
</glyph>
<glyph name="F" format="2">
  <advance width="634"/>
  <unicode hex="0046"/>
  <outline>
    <contour>
      <point x="50" y="0" type="line"/>
      <point x="270" y="0" type="line"/>
      <point x="270" y="760" type="line"/>
      <point x="50" y="760" type="line"/>
    </contour>
    <contour>
      <point x="117" y="593" type="line"/>
      <point x="584" y="593" type="line"/>
      <point x="584" y="760" type="line"/>
      <point x="117" y="760" type="line"/>
    </contour>
    <contour>
      <point x="117" y="284" type="line"/>
      <point x="555" y="284" type="line"/>
      <point x="555" y="427" type="line"/>
      <point x="117" y="427" type="line"/>
    </contour>
  </outline>
</glyph>
<glyph name="G" format="2">
  <advance width="840"/>
  <unicode hex="0047"/>
  <outline>
    <contour>
      <point x="396" y="304" type="line"/>
      <point x="620" y="304" type="line"/>
      <point x="620" y="216" type="line"/>
      <point x="696" y="0" type="line"/>
      <point x="790" y="0" type="line"/>
      <point x="790" y="381" type="line"/>
      <point x="396" y="381" type="line"/>
    </contour>
    <contour>
      <point x="594" y="339" type="line"/>
      <point x="584" y="207"/>
      <point x="529" y="163"/>
      <point x="434" y="163" type="curve" smooth="yes"/>
      <point x="407" y="163" type="line" smooth="yes"/>
      <point x="312" y="163"/>
      <point x="259" y="222"/>
      <point x="259" y="383" type="curve" smooth="yes"/>
      <point x="259" y="540"/>
      <point x="317" y="597"/>
      <point x="417" y="597" type="curve" smooth="yes"/>
      <point x="444" y="597" type="line" smooth="yes"/>
      <point x="533" y="597"/>
      <point x="583" y="556"/>
      <point x="594" y="435" type="curve"/>
      <point x="786" y="456" type="line"/>
      <point x="762" y="673"/>
      <point x="639" y="770"/>
      <point x="447" y="770" type="curve" smooth="yes"/>
      <point x="399" y="770" type="line" smooth="yes"/>
      <point x="178" y="770"/>
      <point x="37" y="652"/>
      <point x="37" y="383" type="curve" smooth="yes"/>
      <point x="37" y="111"/>
      <point x="175" y="-10"/>
      <point x="396" y="-10" type="curve" smooth="yes"/>
      <point x="422" y="-10" type="line" smooth="yes"/>
      <point x="615" y="-10"/>
      <point x="737" y="91"/>
      <point x="756" y="318" type="curve"/>
    </contour>
  </outline>
</glyph>
<glyph name="H" format="2">
  <advance width="762"/>
  <unicode hex="0048"/>
  <outline>
    <contour>
      <point x="50" y="0" type="line"/>
      <point x="270" y="0" type="line"/>
      <point x="270" y="760" type="line"/>
      <point x="50" y="760" type="line"/>
    </contour>
    <contour>
      <point x="132" y="291" type="line"/>
      <point x="630" y="291" type="line"/>
      <point x="630" y="461" type="line"/>
      <point x="132" y="461" type="line"/>
    </contour>
    <contour>
      <point x="491" y="0" type="line"/>
      <point x="711" y="0" type="line"/>
      <point x="711" y="760" type="line"/>
      <point x="491" y="760" type="line"/>
    </contour>
  </outline>
</glyph>
<glyph name="I" format="2">
  <advance width="568"/>
  <unicode hex="0049"/>
  <outline>
    <contour>
      <point x="174" y="0" type="line"/>
      <point x="394" y="0" type="line"/>
      <point x="394" y="760" type="line"/>
      <point x="174" y="760" type="line"/>
    </contour>
    <contour>
      <point x="50" y="579" type="line"/>
      <point x="518" y="579" type="line"/>
      <point x="518" y="760" type="line"/>
      <point x="50" y="760" type="line"/>
    </contour>
    <contour>
      <point x="50" y="0" type="line"/>
      <point x="518" y="0" type="line"/>
      <point x="518" y="181" type="line"/>
      <point x="50" y="181" type="line"/>
    </contour>
  </outline>
</glyph>
<glyph name="J" format="2">
  <advance width="615"/>
  <unicode hex="004A"/>
  <outline>
    <contour>
      <point x="197" y="-10" type="curve" smooth="yes"/>
      <point x="425" y="-10"/>
      <point x="565" y="90"/>
      <point x="565" y="316" type="curve" smooth="yes"/>
      <point x="565" y="760" type="line"/>
      <point x="342" y="760" type="line"/>
      <point x="342" y="351" type="line" smooth="yes"/>
      <point x="342" y="223"/>
      <point x="283" y="176"/>
      <point x="180" y="176" type="curve" smooth="yes"/>
      <point x="149" y="176"/>
      <point x="117" y="179"/>
      <point x="84" y="187" type="curve"/>
      <point x="50" y="9" type="line"/>
      <point x="94" y="-4"/>
      <point x="143" y="-10"/>
    </contour>
  </outline>
</glyph>
<glyph name="K" format="2">
  <advance width="770"/>
  <unicode hex="004B"/>
  <outline>
    <contour>
      <point x="50" y="0" type="line"/>
      <point x="270" y="0" type="line"/>
      <point x="270" y="760" type="line"/>
      <point x="50" y="760" type="line"/>
    </contour>
    <contour>
      <point x="229" y="318" type="line"/>
      <point x="297" y="318" type="line"/>
      <point x="494" y="0" type="line"/>
      <point x="750" y="0" type="line"/>
      <point x="482" y="464" type="line"/>
      <point x="308" y="416" type="line"/>
      <point x="229" y="416" type="line"/>
    </contour>
    <contour>
      <point x="287" y="394" type="line"/>
      <point x="443" y="323" type="line"/>
      <point x="743" y="760" type="line"/>
      <point x="506" y="760" type="line"/>
    </contour>
  </outline>
</glyph>
<glyph name="L" format="2">
  <advance width="588"/>
  <unicode hex="004C"/>
  <outline>
    <contour>
      <point x="50" y="0" type="line"/>
      <point x="270" y="0" type="line"/>
      <point x="270" y="760" type="line"/>
      <point x="50" y="760" type="line"/>
    </contour>
    <contour>
      <point x="117" y="0" type="line"/>
      <point x="564" y="0" type="line"/>
      <point x="564" y="168" type="line"/>
      <point x="117" y="168" type="line"/>
    </contour>
  </outline>
</glyph>
<glyph name="M" format="2">
  <advance width="814"/>
  <unicode hex="004D"/>
  <outline>
    <contour>
      <point x="50" y="0" type="line"/>
      <point x="225" y="0" type="line"/>
      <point x="225" y="760" type="line"/>
      <point x="50" y="760" type="line"/>
    </contour>
    <contour>
      <point x="763" y="0" type="line"/>
      <point x="763" y="760" type="line"/>
      <point x="589" y="760" type="line"/>
      <point x="589" y="0" type="line"/>
    </contour>
    <contour>
      <point x="677" y="516" type="line"/>
      <point x="589" y="760" type="line"/>
      <point x="392" y="460" type="line"/>
      <point x="422" y="460" type="line"/>
      <point x="225" y="760" type="line"/>
      <point x="137" y="516" type="line"/>
      <point x="374" y="188" type="line"/>
      <point x="441" y="188" type="line"/>
    </contour>
  </outline>
</glyph>
<glyph name="N" format="2">
  <advance width="762"/>
  <unicode hex="004E"/>
  <outline>
    <contour>
      <point x="50" y="0" type="line"/>
      <point x="223" y="0" type="line"/>
      <point x="223" y="760" type="line"/>
      <point x="50" y="760" type="line"/>
    </contour>
    <contour>
      <point x="115" y="564" type="line"/>
      <point x="538" y="0" type="line"/>
      <point x="646" y="196" type="line"/>
      <point x="223" y="760" type="line"/>
    </contour>
    <contour>
      <point x="539" y="0" type="line"/>
      <point x="711" y="0" type="line"/>
      <point x="711" y="760" type="line"/>
      <point x="539" y="760" type="line"/>
    </contour>
  </outline>
</glyph>
<glyph name="O" format="2">
  <advance width="837"/>
  <unicode hex="004F"/>
  <outline>
    <contour>
      <point x="396" y="-10" type="curve" smooth="yes"/>
      <point x="441" y="-10" type="line" smooth="yes"/>
      <point x="661" y="-10"/>
      <point x="801" y="111"/>
      <point x="801" y="383" type="curve" smooth="yes"/>
      <point x="801" y="652"/>
      <point x="661" y="770"/>
      <point x="441" y="770" type="curve" smooth="yes"/>
      <point x="396" y="770" type="line" smooth="yes"/>
      <point x="175" y="770"/>
      <point x="37" y="652"/>
      <point x="37" y="383" type="curve" smooth="yes"/>
      <point x="37" y="111"/>
      <point x="175" y="-10"/>
    </contour>
    <contour>
      <point x="407" y="163" type="line" smooth="yes"/>
      <point x="312" y="163"/>
      <point x="259" y="222"/>
      <point x="259" y="383" type="curve" smooth="yes"/>
      <point x="259" y="540"/>
      <point x="312" y="597"/>
      <point x="407" y="597" type="curve" smooth="yes"/>
      <point x="430" y="597" type="line" smooth="yes"/>
      <point x="526" y="597"/>
      <point x="578" y="540"/>
      <point x="578" y="383" type="curve" smooth="yes"/>
      <point x="578" y="222"/>
      <point x="526" y="163"/>
      <point x="430" y="163" type="curve" smooth="yes"/>
    </contour>
  </outline>
</glyph>
<glyph name="P" format="2">
  <advance width="701"/>
  <unicode hex="0050"/>
  <outline>
    <contour>
      <point x="50" y="0" type="line"/>
      <point x="270" y="0" type="line"/>
      <point x="270" y="760" type="line"/>
      <point x="50" y="760" type="line"/>
    </contour>
    <contour>
      <point x="208" y="589" type="line"/>
      <point x="356" y="589" type="line" smooth="yes"/>
      <point x="440" y="589"/>
      <point x="474" y="544"/>
      <point x="474" y="461" type="curve" smooth="yes"/>
      <point x="474" y="375"/>
      <point x="440" y="333"/>
      <point x="356" y="333" type="curve" smooth="yes"/>
      <point x="208" y="333" type="line"/>
      <point x="208" y="161" type="line"/>
      <point x="359" y="161" type="line" smooth="yes"/>
      <point x="597" y="161"/>
      <point x="676" y="272"/>
      <point x="676" y="461" type="curve" smooth="yes"/>
      <point x="676" y="649"/>
      <point x="597" y="760"/>
      <point x="360" y="760" type="curve" smooth="yes"/>
      <point x="208" y="760" type="line"/>
    </contour>
  </outline>
</glyph>
<glyph name="Q" format="2">
  <advance width="837"/>
  <unicode hex="0051"/>
  <outline>
    <contour>
      <point x="426" y="-130" type="line"/>
      <point x="643" y="-130" type="line"/>
      <point x="534" y="107" type="line"/>
      <point x="335" y="100" type="line"/>
    </contour>
    <component base="O"/>
  </outline>
</glyph>
<glyph name="R" format="2">
  <advance width="714"/>
  <unicode hex="0052"/>
  <outline>
    <contour>
      <point x="459" y="0" type="line"/>
      <point x="684" y="0" type="line"/>
      <point x="621" y="161" type="line" smooth="yes"/>
      <point x="594" y="216"/>
      <point x="561" y="248"/>
      <point x="506" y="248" type="curve"/>
      <point x="372" y="248" type="line"/>
    </contour>
    <contour>
      <point x="50" y="0" type="line"/>
      <point x="270" y="0" type="line"/>
      <point x="270" y="760" type="line"/>
      <point x="50" y="760" type="line"/>
    </contour>
    <contour>
      <point x="208" y="589" type="line"/>
      <point x="362" y="589" type="line" smooth="yes"/>
      <point x="445" y="589"/>
      <point x="479" y="544"/>
      <point x="479" y="461" type="curve" smooth="yes"/>
      <point x="479" y="374"/>
      <point x="445" y="333"/>
      <point x="362" y="333" type="curve" smooth="yes"/>
      <point x="208" y="333" type="line"/>
      <point x="208" y="197" type="line"/>
      <point x="369" y="197" type="line" smooth="yes"/>
      <point x="597" y="197"/>
      <point x="681" y="303"/>
      <point x="681" y="479" type="curve" smooth="yes"/>
      <point x="681" y="655"/>
      <point x="592" y="760"/>
      <point x="364" y="760" type="curve" smooth="yes"/>
      <point x="208" y="760" type="line"/>
    </contour>
  </outline>
</glyph>
<glyph name="S" format="2">
  <advance width="703"/>
  <unicode hex="0053"/>
  <outline>
    <contour>
      <point x="667" y="217" type="curve" smooth="yes"/>
      <point x="667" y="379"/>
      <point x="577" y="435"/>
      <point x="416" y="463" type="curve" smooth="yes"/>
      <point x="336" y="479" type="line" smooth="yes"/>
      <point x="247" y="498"/>
      <point x="225" y="516"/>
      <point x="225" y="551" type="curve" smooth="yes"/>
      <point x="225" y="585"/>
      <point x="258" y="609"/>
      <point x="340" y="609" type="curve" smooth="yes"/>
      <point x="394" y="609" type="line" smooth="yes"/>
      <point x="484" y="609"/>
      <point x="564" y="598"/>
      <point x="627" y="580" type="curve"/>
      <point x="656" y="733" type="line"/>
      <point x="592" y="752"/>
      <point x="494" y="770"/>
      <point x="418" y="770" type="curve" smooth="yes"/>
      <point x="377" y="770" type="line" smooth="yes"/>
      <point x="150" y="770"/>
      <point x="45" y="682"/>
      <point x="45" y="533" type="curve" smooth="yes"/>
      <point x="46" y="386"/>
      <point x="144" y="327"/>
      <point x="296" y="298" type="curve" smooth="yes"/>
      <point x="373" y="282" type="line" smooth="yes"/>
      <point x="461" y="259"/>
      <point x="485" y="246"/>
      <point x="485" y="209" type="curve" smooth="yes"/>
      <point x="485" y="176"/>
      <point x="452" y="152"/>
      <point x="365" y="152" type="curve" smooth="yes"/>
      <point x="312" y="152" type="line" smooth="yes"/>
      <point x="215" y="152"/>
      <point x="128" y="163"/>
      <point x="58" y="183" type="curve"/>
      <point x="30" y="28" type="line"/>
      <point x="101" y="8"/>
      <point x="208" y="-10"/>
      <point x="289" y="-10" type="curve" smooth="yes"/>
      <point x="332" y="-10" type="line" smooth="yes"/>
      <point x="586" y="-10"/>
      <point x="667" y="89"/>
    </contour>
  </outline>
</glyph>
<glyph name="T" format="2">
  <advance width="681"/>
  <unicode hex="0054"/>
  <outline>
    <contour>
      <point x="230" y="0" type="line"/>
      <point x="450" y="0" type="line"/>
      <point x="450" y="760" type="line"/>
      <point x="230" y="760" type="line"/>
    </contour>
    <contour>
      <point x="25" y="588" type="line"/>
      <point x="656" y="588" type="line"/>
      <point x="656" y="760" type="line"/>
      <point x="25" y="760" type="line"/>
    </contour>
  </outline>
</glyph>
<glyph name="U" format="2">
  <advance width="765"/>
  <unicode hex="0055"/>
  <outline>
    <contour>
      <point x="382" y="-10" type="curve" smooth="yes"/>
      <point x="602" y="-10"/>
      <point x="711" y="87"/>
      <point x="711" y="303" type="curve" smooth="yes"/>
      <point x="711" y="760" type="line"/>
      <point x="489" y="760" type="line"/>
      <point x="489" y="279" type="line" smooth="yes"/>
      <point x="489" y="196"/>
      <point x="450" y="166"/>
      <point x="382" y="166" type="curve" smooth="yes"/>
      <point x="315" y="166"/>
      <point x="275" y="196"/>
      <point x="275" y="279" type="curve" smooth="yes"/>
      <point x="275" y="760" type="line"/>
      <point x="54" y="760" type="line"/>
      <point x="54" y="303" type="line" smooth="yes"/>
      <point x="54" y="87"/>
      <point x="161" y="-10"/>
    </contour>
  </outline>
</glyph>
<glyph name="V" format="2">
  <advance width="735"/>
  <unicode hex="0056"/>
  <outline>
    <contour>
      <point x="718" y="760" type="line"/>
      <point x="541" y="760" type="line"/>
      <point x="380" y="0" type="line"/>
      <point x="534" y="0" type="line"/>
    </contour>
    <contour>
      <point x="256" y="760" type="line"/>
      <point x="17" y="760" type="line"/>
      <point x="201" y="0" type="line"/>
      <point x="426" y="0" type="line"/>
    </contour>
    <contour>
      <point x="489" y="171" type="line"/>
      <point x="282" y="171" type="line"/>
      <point x="282" y="0" type="line"/>
      <point x="489" y="0" type="line"/>
    </contour>
  </outline>
</glyph>
<glyph name="W" format="2">
  <advance width="866"/>
  <unicode hex="0057"/>
  <outline>
    <contour>
      <point x="849" y="760" type="line"/>
      <point x="662" y="760" type="line"/>
      <point x="578" y="187" type="line"/>
      <point x="604" y="187" type="line"/>
      <point x="517" y="760" type="line"/>
      <point x="371" y="760" type="line"/>
      <point x="288" y="186" type="line"/>
      <point x="315" y="186" type="line"/>
      <point x="226" y="760" type="line"/>
      <point x="17" y="760" type="line"/>
      <point x="146" y="0" type="line"/>
      <point x="353" y="0" type="line"/>
      <point x="435" y="510" type="line"/>
      <point x="403" y="509" type="line"/>
      <point x="497" y="0" type="line"/>
      <point x="723" y="0" type="line"/>
    </contour>
  </outline>
</glyph>
<glyph name="X" format="2">
  <advance width="723"/>
  <unicode hex="0058"/>
  <outline>
    <contour>
      <point x="447" y="0" type="line"/>
      <point x="707" y="0" type="line"/>
      <point x="447" y="431" type="line"/>
      <point x="280" y="760" type="line"/>
      <point x="20" y="760" type="line"/>
      <point x="272" y="349" type="line"/>
    </contour>
    <contour>
      <point x="17" y="0" type="line"/>
      <point x="198" y="0" type="line"/>
      <point x="342" y="323" type="line"/>
      <point x="474" y="340" type="line"/>
      <point x="702" y="760" type="line"/>
      <point x="521" y="760" type="line"/>
      <point x="377" y="463" type="line"/>
      <point x="245" y="437" type="line"/>
    </contour>
  </outline>
</glyph>
<glyph name="Y" format="2">
  <advance width="714"/>
  <unicode hex="0059"/>
  <outline>
    <contour>
      <point x="698" y="760" type="line"/>
      <point x="528" y="760" type="line"/>
      <point x="328" y="204" type="line"/>
      <point x="466" y="202" type="line"/>
    </contour>
    <contour>
      <point x="254" y="760" type="line"/>
      <point x="16" y="760" type="line"/>
      <point x="247" y="202" type="line"/>
      <point x="447" y="204" type="line"/>
    </contour>
    <contour>
      <point x="467" y="273" type="line"/>
      <point x="247" y="273" type="line"/>
      <point x="247" y="0" type="line"/>
      <point x="467" y="0" type="line"/>
    </contour>
  </outline>
</glyph>
<glyph name="Z" format="2">
  <advance width="698"/>
  <unicode hex="005A"/>
  <outline>
    <contour>
      <point x="50" y="168" type="line"/>
      <point x="295" y="142" type="line"/>
      <point x="647" y="592" type="line"/>
      <point x="403" y="618" type="line"/>
    </contour>
    <contour>
      <point x="50" y="592" type="line"/>
      <point x="647" y="592" type="line"/>
      <point x="647" y="760" type="line"/>
      <point x="50" y="760" type="line"/>
    </contour>
    <contour>
      <point x="50" y="0" type="line"/>
      <point x="647" y="0" type="line"/>
      <point x="647" y="168" type="line"/>
      <point x="50" y="168" type="line"/>
    </contour>
  </outline>
</glyph>
